<svg fill="none" height="31" viewBox="0 0 166 31" width="166" xmlns="http://www.w3.org/2000/svg"><g clip-rule="evenodd" fill-rule="evenodd"><path d="m8.85639 30.0485-7.915379.2896c-.629492.1954-1.17129-.4837-.841079-1.054l13.710268-22.47888c.4152-.71736 1.515-.28722 1.333.52157l-5.79514 22.18911c-.05677.2527-.24439.4558-.49167.5326z" fill="#1f40cb"/><path d="m16.848 8.51117 1.9017-7.955322c.1521-.6361197 1.0029-.760353 1.3307-.194422l11.9167 20.579674c.4148.7163-.5036 1.4556-1.1149.8971l-13.8184-12.62412c-.1944-.1776-.277-.4468-.2158-.70291z" fill="#00a2ed"/><path d="m35.9366 29.9022-23.8728.1119c-.8288.0041-1.0127-1.1626-.2226-1.4137l17.9342-5.7028c.2504-.0797.5243-.0173.7155.1627l5.9386 5.591c.476.4481.1611 1.2479-.4929 1.2509z" fill="#1f40cb"/><g fill="#fff"><path d="m53.8625 11.7279c0-1.74211-1.1506-2.91221-2.889-2.91221h-3.7839c-.0768 0-.1535.05217-.1535.15601v5.4346c0 .078.0512.156.1535.156h3.7839c1.7384 0 2.889-1.1442 2.889-2.8344zm2.9654-.0781c0 3.2244-2.2243 5.3566-5.5735 5.3566h-4.065c-.0768 0-.1535.0519-.1535.156v6.8645c0 .26-.1533.416-.4089.416h-2.1476c-.2558 0-.4091-.156-.4091-.416v-17.39536c0-.26019.1533-.41621.4091-.41621h6.9285c3.2468 0 5.42 2.18419 5.42 5.43447z"/><path d="m66.592 11.286c.2047.104.2813.286.2301.5201l-.409 2.1582c-.0512.286-.2045.338-.4857.26-.3325-.104-.7925-.156-1.3039-.078-1.3806.078-2.5055 1.0401-2.5055 2.6262v7.2546c0 .26-.1535.416-.4091.416h-2.1477c-.2556 0-.4089-.156-.4089-.416v-12.4551c0-.26.1533-.416.4089-.416h2.1477c.2556 0 .4091.156.4091.416v1.0141c0 .13.0766.1821.1533.052.6648-1.014 1.6362-1.6381 2.9657-1.6381.6137 0 1.0228.13 1.355.286z"/><path d="m68.9739 24.027v-12.455c0-.2599.1533-.4159.4089-.4159h2.1477c.2557 0 .409.156.409.4159v12.455c0 .2601-.1533.4161-.409.4161h-2.1477c-.2556 0-.4089-.156-.4089-.4161zm-.4348-16.43323c0-1.09227.7924-1.87233 1.9175-1.87233 1.1249 0 1.8919.78006 1.8919 1.87233 0 1.11809-.767 1.89816-1.8919 1.89816-1.1251 0-1.9175-.78007-1.9175-1.89816z"/><path d="m74.8008 20.9068v-.1301c0-.2599.1534-.4159.409-.4159h2.0454c.2556 0 .4092.078.4092.1818v.1822c0 .8581.9969 1.6122 2.4798 1.6122 1.3805 0 2.3009-.6501 2.3009-1.5082 0-1.0922-1.5085-1.2741-3.1957-1.8461-2.0452-.6241-4.3208-1.4563-4.3208-4.0045 0-2.4701 2.071-3.9782 5.0878-3.9782 3.1447 0 5.2157 1.6381 5.2157 3.9523 0 .1819-.1533.3121-.4091.3121h-1.9687c-.2557 0-.4092-.0522-.4092-.156v-.1561c0-.858-.8948-1.5861-2.4287-1.5861-1.3039 0-2.2498.494-2.2498 1.4301 0 1.0659 1.4316 1.3261 3.1445 1.8202 2.1222.624 4.4999 1.4301 4.4999 4.0303 0 2.4961-2.0963 3.9524-5.2412 3.9524-3.2725 0-5.369-1.5862-5.369-3.6924z"/><path d="m106.096 15.5246v8.5025c0 .2602-.154.4161-.409.4161h-2.122c-.256 0-.409-.1559-.409-.4161v-7.8785c0-1.5861-.921-2.6004-2.301-2.6004-1.3811 0-2.3782.9883-2.3782 2.5744v7.9045c0 .2602-.1533.4161-.4089.4161h-2.1221c-.2558 0-.4091-.1559-.4091-.4161v-7.8785c0-1.5861-.9204-2.6004-2.3264-2.6004-1.2785 0-2.1732.8061-2.3268 2.1324v8.3465c0 .2602-.1533.4161-.4089.4161h-2.1476c-.2557 0-.409-.1559-.409-.4161v-12.455c0-.2599.1533-.4159.409-.4159h2.1476c.2556 0 .4089.156.4089.4159v.7022c0 .13.1025.1818.1791.052.767-.9621 1.9174-1.3783 3.2214-1.3783 1.6875 0 2.9401.7021 3.6303 2.0023.0512.104.1536.104.2046-.0261.8182-1.378 2.2501-1.9762 3.7841-1.9762 2.608 0 4.193 1.6903 4.193 4.5766z"/><path d="m116.221 11.5461v1.846c0 .2602-.154.4162-.409.4162h-2.404c-.076 0-.153.052-.153.1561v10.0626c0 .2602-.153.4163-.409.4163h-2.148c-.255 0-.409-.1561-.409-.4163v-10.0626c0-.1041-.051-.1561-.153-.1561h-1.457c-.256 0-.409-.156-.409-.4162v-1.846c0-.26.153-.416.409-.416h1.457c.102 0 .153-.052.153-.156v-.442c0-3.30232 1.125-4.31641 4.679-4.2904h.793c.255 0 .409.15601.409.41586v1.61231c0 .26002-.154.41603-.409.41603h-.563c-1.483 0-1.943.49405-1.943 2.0542v.234c0 .104.051.156.153.156h2.404c.255 0 .409.156.409.416z"/><path d="m125.963 19.9707c.204-.5981.281-1.4042.281-2.1842 0-.8579-.102-1.638-.256-2.184-.383-1.3002-1.355-2.0544-2.659-2.0544-1.303 0-2.249.7542-2.633 2.0544-.153.546-.256 1.3261-.256 2.184 0 .8062.103 1.6381.256 2.1842.384 1.3001 1.355 2.0801 2.685 2.0801 1.252 0 2.198-.78 2.582-2.0801zm-8.079.7541c-.281-.832-.435-1.9241-.435-2.9642 0-1.0659.154-2.158.409-2.9641.767-2.4184 2.813-3.8485 5.548-3.8485 2.608 0 4.577 1.4301 5.369 3.8223.307.8323.461 1.9244.461 2.9644 0 1.0141-.154 2.1061-.435 2.9641-.767 2.4702-2.787 3.9524-5.42 3.9524-2.685 0-4.756-1.4822-5.497-3.9264z"/><path d="m139.487 11.286c.204.104.281.286.23.5201l-.409 2.1582c-.051.286-.205.338-.486.26-.332-.104-.793-.156-1.304-.078-1.381.078-2.506 1.0401-2.506 2.6262v7.2546c0 .26-.153.416-.408.416h-2.148c-.256 0-.409-.156-.409-.416v-12.4551c0-.26.153-.416.409-.416h2.148c.255 0 .408.156.408.416v1.0141c0 .13.077.1821.154.052.665-1.014 1.636-1.6381 2.966-1.6381.613 0 1.022.13 1.355.286z"/><path d="m141.456 20.8548c-.307-.884-.409-1.9239-.409-3.1201 0-1.3521.153-2.3143.409-3.0684.716-2.2882 2.761-3.7183 5.394-3.7183 2.736 0 4.833 1.5603 5.446 3.5623.102.2862.128.546.154.7281.051.2862-.077.416-.333.468l-2.122.338c-.256.052-.409-.078-.46-.312l-.077-.338c-.23-1.0141-1.227-1.8462-2.608-1.8462-1.329 0-2.249.7541-2.556 1.8984-.154.4938-.256 1.2999-.256 2.314 0 1.0661.102 1.8201.23 2.3142.333 1.1961 1.227 1.9761 2.582 1.9761 1.304 0 2.301-.728 2.583-1.8461.025-.078.025-.13.025-.13.026-.1299.23-.4161.486-.3639l2.122.3379c.256.052.384.208.332.4682-.025.156-.051.3378-.102.5199-.665 2.2362-2.812 3.6143-5.446 3.6143-2.633 0-4.653-1.4822-5.394-3.7964z"/><path d="m157.743 15.3684c-.102.3121-.179.6499-.204 1.0921-.026.1039.025.156.127.156h5.139c.103 0 .154-.0521.154-.156-.051-.39-.077-.702-.154-.9361-.307-1.1961-1.227-1.9763-2.608-1.9763-1.329 0-2.147.7281-2.454 1.8203zm5.752 5.3046c.154-.234.358-.2862.563-.1302l1.227.9883c.179.156.256.3378.102.572-.971 1.5602-2.71 2.5481-4.96 2.5481-2.761 0-4.576-1.4302-5.369-3.6922-.332-.9361-.511-2.0281-.511-3.2243 0-1.1442.051-1.9761.281-2.7564.639-2.4442 2.659-4.0303 5.395-4.0303 3.426 0 5.087 2.0283 5.599 5.3305.102.6502.153 1.3782.179 2.1321 0 .2602-.154.4162-.409.4162h-7.926c-.102 0-.153.0519-.153.1561 0 .468.051.8579.153 1.1439.358 1.2221 1.457 1.9763 3.043 1.9763 1.278-.0522 2.224-.5982 2.786-1.4301z"/></g></g></svg>